<svg width="34" height="24" viewBox="0 0 34 24" fill="none" xmlns="http://www.w3.org/2000/svg">
<path d="M33.5 12C33.5 15.1024 31.7129 17.9654 28.7267 20.0732C25.7421 22.1798 21.5955 23.5 17 23.5C12.4045 23.5 8.25791 22.1798 5.27326 20.0732C2.28706 17.9654 0.5 15.1024 0.5 12C0.5 8.89712 2.2822 6.03414 5.26534 3.9267C8.24707 1.82025 12.3935 0.5 17 0.5C21.6065 0.5 25.7529 1.82025 28.7347 3.9267C31.7178 6.03414 33.5 8.89712 33.5 12Z" fill="#F8F8F8" stroke="#A6A6A6"/>
<path d="M15.7402 17.5179C16.1737 17.5179 16.5143 17.3204 16.762 16.9255L21.9521 8.80542C22.0295 8.68926 22.0953 8.56535 22.1495 8.43369C22.2114 8.29429 22.2424 8.15876 22.2424 8.02711C22.2424 7.74057 22.134 7.50823 21.9173 7.33011C21.7005 7.15199 21.4567 7.06293 21.1858 7.06293C20.822 7.06293 20.5201 7.26041 20.2801 7.65538L15.6938 15.0087L13.5341 12.2672C13.3948 12.0813 13.2516 11.9535 13.1045 11.8838C12.9652 11.8064 12.8065 11.7677 12.6284 11.7677C12.3498 11.7677 12.1098 11.8722 11.9086 12.0813C11.715 12.2827 11.6183 12.5266 11.6183 12.8132C11.6183 13.0765 11.7189 13.3359 11.9202 13.5915L14.6604 16.9371C14.8229 17.1307 14.9894 17.2778 15.1597 17.3785C15.3299 17.4714 15.5235 17.5179 15.7402 17.5179Z" fill="#A6A6A6"/>
</svg>
