<svg width="34" height="24" viewBox="0 0 34 24" fill="none" xmlns="http://www.w3.org/2000/svg">
<path d="M17 24C26.3735 24 34 18.6178 34 12C34 5.38219 26.3951 0 17 0C7.60492 0 0 5.38219 0 12C0 18.6178 7.62649 24 17 24Z" fill="#5ED270"/>
<path d="M15.7402 17.5179C16.1737 17.5179 16.5143 17.3204 16.762 16.9255L21.9521 8.80542C22.0295 8.68926 22.0953 8.56535 22.1495 8.43369C22.2114 8.29429 22.2424 8.15876 22.2424 8.02711C22.2424 7.74057 22.134 7.50823 21.9173 7.33011C21.7005 7.15199 21.4567 7.06293 21.1858 7.06293C20.822 7.06293 20.5201 7.26041 20.2801 7.65538L15.6938 15.0087L13.5341 12.2672C13.3948 12.0813 13.2516 11.9535 13.1045 11.8838C12.9652 11.8064 12.8065 11.7677 12.6284 11.7677C12.3498 11.7677 12.1098 11.8722 11.9086 12.0813C11.715 12.2827 11.6183 12.5266 11.6183 12.8132C11.6183 13.0765 11.7189 13.3359 11.9202 13.5915L14.6604 16.9371C14.8229 17.1307 14.9894 17.2778 15.1597 17.3785C15.3299 17.4714 15.5235 17.5179 15.7402 17.5179Z" fill="white"/>
</svg>
